<?xml version="1.0" encoding="UTF-8" standalone="no"?>
<svg
   xmlns:dc="http://purl.org/dc/elements/1.1/"
   xmlns:cc="http://creativecommons.org/ns#"
   xmlns:rdf="http://www.w3.org/1999/02/22-rdf-syntax-ns#"
   xmlns:svg="http://www.w3.org/2000/svg"
   xmlns="http://www.w3.org/2000/svg"
   xmlns:sodipodi="http://sodipodi.sourceforge.net/DTD/sodipodi-0.dtd"
   xmlns:inkscape="http://www.inkscape.org/namespaces/inkscape"
   version="1.1"
   id="svg2"
   viewBox="0 0 48.000001 48"
   width="48"
   height="48"
   inkscape:version="0.91 r13725"
   sodipodi:docname="ag-48x48.svg"
   inkscape:export-filename="/home/rcer3/Desktop/agrixiv-logos/ag-48x48.svg.png"
   inkscape:export-xdpi="90"
   inkscape:export-ydpi="90">
  <sodipodi:namedview
     pagecolor="#ffffff"
     bordercolor="#666666"
     borderopacity="1"
     objecttolerance="10"
     gridtolerance="10"
     guidetolerance="10"
     inkscape:pageopacity="0"
     inkscape:pageshadow="2"
     inkscape:window-width="1535"
     inkscape:window-height="876"
     id="namedview3500"
     showgrid="false"
     inkscape:showpageshadow="false"
     inkscape:zoom="4.9166667"
     inkscape:cx="14.644068"
     inkscape:cy="24"
     inkscape:window-x="65"
     inkscape:window-y="24"
     inkscape:window-maximized="1"
     inkscape:current-layer="svg2" />
  <defs
     id="defs8" />
  <metadata
     id="metadata4">
    <rdf:RDF>
      <cc:Work
         rdf:about="">
        <dc:format>image/svg+xml</dc:format>
        <dc:type
           rdf:resource="http://purl.org/dc/dcmitype/StillImage" />
        <dc:title></dc:title>
      </cc:Work>
    </rdf:RDF>
  </metadata>
  <g
     id="text3140"
     style="font-style:normal;font-weight:normal;font-size:28.70531273px;line-height:125%;font-family:sans-serif;letter-spacing:0px;word-spacing:0px;fill:#001e00;fill-opacity:1;stroke:none;stroke-width:1px;stroke-linecap:butt;stroke-linejoin:miter;stroke-opacity:1"
     transform="matrix(0.83335105,0,0,1.1999745,1.1025932e-7,-1.6815521e-6)">
    <path
       id="path3309"
       style="font-style:normal;font-variant:normal;font-weight:bold;font-stretch:normal;font-size:43.05796432px;line-height:125%;font-family:'URW Bookman L';-inkscape-font-specification:'URW Bookman L, Bold';text-align:start;writing-mode:lr-tb;text-anchor:start;fill:#001e00;fill-opacity:1"
       d="m 20.926172,-1.7929077e-7 -6.673985,0 L 5.7267104,20.452533 c -1.6362026,3.789101 -2.6265358,4.86555 -5.03778179,5.253072 L 1.1854172e-6,25.79172 l 0,3.530754 13.3049108145828,0 0,-3.530754 -0.688927,-0.08612 c -2.32513,-0.301406 -3.1862896,-0.731986 -3.1862896,-1.550087 0,-0.258348 0.1722318,-1.076449 0.3875217,-1.550087 l 1.3778549,-3.702985 9.257462,0 1.291739,3.659927 c 0.301406,0.775043 0.473638,1.507029 0.473638,1.851493 0,0.775043 -0.775044,1.162565 -2.54042,1.291739 l -1.076449,0.08612 0,3.530754 15.716157,0 0,-3.530754 -0.688928,-0.08612 C 31.217025,25.27502 30.829504,24.84444 29.365533,21.012281 L 20.926172,-1.7929077e-7 Z M 12.572927,15.242519 l 3.272405,-8.3963029 3.186289,8.3963029 -6.458694,0 z" />
    <path
       id="path3311"
       style="font-style:normal;font-variant:normal;font-weight:bold;font-stretch:normal;font-size:43.05796432px;line-height:125%;font-family:'URW Bookman L';-inkscape-font-specification:'URW Bookman L, Bold';text-align:start;writing-mode:lr-tb;text-anchor:start;fill:#001e00;fill-opacity:1"
       d="m 43.389646,25.576431 c -2.841826,-0.21529 -3.487695,-0.516696 -3.487695,-1.507029 0,-0.516696 0.387522,-0.947275 0.904217,-0.947275 0.129174,0 0.387522,0.04306 0.64587,0.08612 0.990333,0.215289 2.54042,0.387521 3.616869,0.387521 5.597535,0 9.558868,-3.358521 9.558868,-8.137955 0,-2.583478 -0.990333,-4.478028 -3.358521,-6.2864628 0.430579,-0.3875217 0.688927,-0.5166955 1.334796,-0.5166955 0.387522,0 0.43058,0 1.334797,0.3014057 0.387522,0.1291739 0.775044,0.2152898 1.033391,0.2152898 1.463971,0 2.626536,-1.1195071 2.626536,-2.4543039 0,-1.6362027 -1.46397,-2.9279416 -3.358521,-2.9279416 -1.420913,0 -3.143231,0.6889274 -4.21968,1.6362026 -0.559754,0.5166956 -0.947276,0.9472752 -1.894551,2.2390142 -1.722318,-0.3875217 -2.583478,-0.5166956 -3.746043,-0.5166956 -5.511419,0 -9.558868,3.5307531 -9.558868,8.2671291 0,2.411246 0.990333,4.43497 2.971,5.941999 -2.54042,0.602812 -4.133565,2.626536 -4.133565,5.210014 0,1.507029 0.688928,2.669594 2.152898,3.746043 -1.980666,0.904217 -2.927941,2.10984 -2.927941,3.875216 0,2.282073 1.550086,4.004391 4.348854,4.908608 1.722319,0.559754 4.43497,0.904218 6.846217,0.904218 3.659926,0 7.104564,-0.688928 9.171346,-1.808435 2.10984,-1.162565 3.616869,-3.789101 3.616869,-6.286463 0,-3.358521 -2.282072,-5.339187 -6.673985,-5.726709 l -6.803158,-0.602811 z m 1.334797,-14.467476 c 2.066782,0 2.927942,1.377854 2.927942,4.736376 0,2.884883 -0.947276,4.21968 -2.927942,4.21968 -2.023724,0 -2.927942,-1.334797 -2.927942,-4.305796 0,-3.229348 0.904218,-4.65026 2.927942,-4.65026 z m 2.066782,21.57204 c 2.669594,0.301405 3.401579,0.688927 3.401579,1.722318 0,1.377855 -2.023724,2.066783 -6.243404,2.066783 -3.573811,0 -6.200347,-1.07645 -6.200347,-2.497362 0,-0.818102 0.516695,-1.550087 1.420913,-2.109841 l 7.621259,0.818102 z" />
  </g>
</svg>
